{"title":"Siu.lam.juk.kau.[Shaolin.Soccer].2001.BRRip.H264.AAC.5.1ch.Gopo","uid":5190876,"size":1951944097,"categoryP":"video","categoryS":"hd___movies","magnet":"?xt=urn:btih:fa4cbc91373eeccbde02c8d1160b4705e45faf39&amp;dn=Siu.lam.juk.kau.%5BShaolin.Soccer%5D.2001.BRRip.H264.AAC.5.1ch.Gopo&amp;tr=udp%3A%2F%2Ftracker.openbittorrent.com%3A80&amp;tr=udp%3A%2F%2Fopen.demonii.com%3A1337&amp;tr=udp%3A%2F%2Ftracker.coppersurfer.tk%3A6969&amp;tr=udp%3A%2F%2Fexodus.desync.com%3A6969","seeders":1,"leechers":0,"uploader":"kriss_kringle","files":-1,"time":1259682309,"description":" General\n      Complete name : Siu.lam.juk.kau.[Shaolin.Soccer].2001.BRRip.H264.AAC.5.1ch.Gopo.mp4\n      Format : MPEG-4\n      Format profile : Base Media\n      Codec ID : isom\n      File size : 1.80 GiB\n      Duration : 1h 52mn\n      Overall bit rate : 2 296 Kbps\n      Encoded date : UTC 2009-11-30 13:29:37\n      Tagged date : UTC 2009-11-30 13:29:37\n   Video #1\n      ID : 1\n      Format : AVC\n      Format/Info : Advanced Video Codec\n      Format profile : &lt;a class=&quot;__cf_email__&quot; href=&quot;/cdn-cgi/l/email-protection&quot; data-cfemail=&quot;e8a0818f80a8a4dcc6d9&quot;&gt;[email&amp;#160;protected]&lt;/a&gt;&lt;script cf-hash='f9e31' type=&quot;text/javascript&quot;&gt;\n/* &lt;![CDATA[ */!function(){try{var t=&quot;currentScript&quot;in document?document.currentScript:function(){for(var t=document.getElementsByTagName(&quot;script&quot;),e=t.length;e--;)if(t[e].getAttribute(&quot;cf-hash&quot;))return t[e]}();if(t&amp;&amp;t.previousSibling){var e,r,n,i,c=t.previousSibling,a=c.getAttribute(&quot;data-cfemail&quot;);if(a){for(e=&quot;&quot;,r=parseInt(a.substr(0,2),16),n=2;a.length-n;n+=2)i=parseInt(a.substr(n,2),16)^r,e+=String.fromCharCode(i);e=document.createTextNode(e),c.parentNode.replaceChild(e,c)}}}catch(u){}}();/* ]]&gt; */&lt;/script&gt;\n      Format settings, CABAC : Yes\n      Format settings, ReFrames : 4 frames\n      Codec ID : avc1\n      Codec ID/Info : Advanced Video Coding\n      Duration : 1h 52mn\n      Bit rate mode : Variable\n      Bit rate : 1 931 Kbps\n      Maximum bit rate : 6 248 Kbps\n      Width : 1 280 pixels\n      Height : 720 pixels\n      Display aspect ratio : 16:9\n      Frame rate mode : Constant\n      Frame rate : 23.976 fps\n      Resolution : 24 bits\n      Colorimetry : 4:2:0\n      Scan type : Progressive\n      Bits/(Pixel*Frame) : 0.087\n      Stream size : 1.52 GiB (84%)\n      Writing library : x264 core 68 r1183M f21daff\n      Encoding settings : cabac=1 / ref=4 / deblock=1:-1:-1 / analyse=0x3:0x113 / me=umh / subme=8 / psy_rd=1.0:0.0 / mixed_ref=1 / me_range=16 / chroma_me=1 / trellis=2 / 8x8dct=1 / cqm=0 / deadzone=21,11 / chroma_qp_offset=-2 / threads=1 / nr=0 / decimate=1 / mbaff=0 / bframes=3 / b_pyramid=0 / b_adapt=2 / b_bias=0 / direct=3 / wpredb=1 / keyint=250 / keyint_min=25 / scenecut=40 / rc=2pass / bitrate=1931 / ratetol=1.0 / qcomp=0.60 / qpmin=10 / qpmax=51 / qpstep=4 / cplxblur=20.0 / qblur=0.5 / vbv_maxrate=50000 / vbv_bufsize=50000 / ip_ratio=1.40 / pb_ratio=1.30 / aq=1:1.00\n      Encoded date : UTC 2009-11-29 00:56:16\n      Tagged date : UTC 2009-11-30 13:31:21\n   Audio #2\n      ID : 2\n      Format : AAC\n      Format/Info : Advanced Audio Codec\n      Format version : Version 4\n      Format profile : LC\n      Format settings, SBR : No\n      Codec ID : 40\n      Duration : 1h 52mn\n      Bit rate mode : Variable\n      Bit rate : 361 Kbps\n      Maximum bit rate : 433 Kbps\n      Channel(s) : 6 channels\n      Channel positions : Front: L C R, Rear: L R, LFE\n      Sampling rate : 48.0 KHz\n      Resolution : 16 bits\n      Stream size : 291 MiB (16%)\n      Encoded date : UTC 2009-11-30 13:31:05\n      Tagged date : UTC 2009-11-30 13:31:21\n\tSample : YES\n\tSubtitle : English,Romanian\n\nPLOT\n\nSing is a skilled Shaolin kung fu devotee whose amazing &quot;leg of steel&quot; catches the eye of a soccer coach. Together they assemble a squad of Sing's former Shaolin brothers inspired by the big-money prize in a national soccer competition. Using an unlikely mix of martial arts and newfound soccer skills, it seems an unbeatable combination until they must face the dreaded Team Evil in the ultimate battle for the title.Director: Stephen Chow\nCASTING\n      \n\tStephen Chow\t... \tMighty Steel Leg Sing\n\tMan Tat Ng\t... \tGolden Leg Fung (as Ng Man Tat)\n\tWei Zhao\t... \tMui\n\tYin Tse\t... \tTeam Evil Coach Hung (as Patrick Tse Yin)\n\tHui Li\t... \tBanana Peel Girl\n\tCecilia Cheung\t... \tTeam Moustache Player 1\n\tKaren Mok\t... \tTeam Moustache Player 2\n\tVincent Kok\t... \tTeam Puma Leader\n\tKai Man Tin\t... \tIron Shirt Tin (Third Brother)\n\tChi Chung Lam\t... \tLight Weight (Small Brother)\n\tKwok-Kwan Chan\t... \tLightning Hands (Fourth Brother)\n\tChi Ling Chiu\t... \tHooking Leg - Second Brother\n\tMing Ming Zhang\t... \tLittle Hung\n\tPu Ye Dong\t... \tLittle Fung\n\tShi Zi Yun\t... \tTeam Evil Center\n\nSOURCE: Shaolin.Soccer.2001.1080p.BluRay.x264-AVCHD.mkv\n\nNotes: For best performance I suggest you to use KMPlayer(find it with google) for playback\nI haven't tested the movies on a PS3 or Xbox or other devices than PC because I don't own one of them but feel free to test them if you have the oportunity.\n","torrent":{"xt":"urn:btih:fa4cbc91373eeccbde02c8d1160b4705e45faf39","amp;dn":"Siu.lam.juk.kau.%5BShaolin.Soccer%5D.2001.BRRip.H264.AAC.5.1ch.Gopo","amp;tr":["udp%3A%2F%2Ftracker.openbittorrent.com%3A80","udp%3A%2F%2Fopen.demonii.com%3A1337","udp%3A%2F%2Ftracker.coppersurfer.tk%3A6969","udp%3A%2F%2Fexodus.desync.com%3A6969"],"infoHash":"fa4cbc91373eeccbde02c8d1160b4705e45faf39","infoHashBuffer":{"type":"Buffer","data":[250,76,188,145,55,62,236,203,222,2,200,209,22,11,71,5,228,95,175,57]},"announce":[],"urlList":[]}}